<mxfile host="app.diagrams.net" agent="Mozilla/5.0 (X11; Ubuntu; Linux x86_64; rv:131.0) Gecko/20100101 Firefox/131.0" version="24.8.3">
  <diagram name="Page-1" id="3qysZRbJW6-GhuXv-Av2">
    <mxGraphModel dx="1412" dy="546" grid="1" gridSize="9" guides="1" tooltips="1" connect="1" arrows="1" fold="1" page="0" pageScale="1" pageWidth="1200" pageHeight="1600" math="0" shadow="0">
      <root>
        <mxCell id="0" />
        <mxCell id="1" parent="0" />
        <mxCell id="4mNUsn576CoQ3j7A1VVO-1" value="AWS Cloud" style="points=[[0,0],[0.25,0],[0.5,0],[0.75,0],[1,0],[1,0.25],[1,0.5],[1,0.75],[1,1],[0.75,1],[0.5,1],[0.25,1],[0,1],[0,0.75],[0,0.5],[0,0.25]];outlineConnect=0;gradientColor=none;html=1;whiteSpace=wrap;fontSize=12;fontStyle=0;container=1;pointerEvents=0;collapsible=0;recursiveResize=0;shape=mxgraph.aws4.group;grIcon=mxgraph.aws4.group_aws_cloud_alt;strokeColor=#232F3E;fillColor=none;verticalAlign=top;align=left;spacingLeft=30;fontColor=#232F3E;dashed=0;" vertex="1" parent="1">
          <mxGeometry x="126" y="36" width="700" height="450" as="geometry" />
        </mxCell>
        <mxCell id="4mNUsn576CoQ3j7A1VVO-2" value="Region" style="points=[[0,0],[0.25,0],[0.5,0],[0.75,0],[1,0],[1,0.25],[1,0.5],[1,0.75],[1,1],[0.75,1],[0.5,1],[0.25,1],[0,1],[0,0.75],[0,0.5],[0,0.25]];outlineConnect=0;gradientColor=none;html=1;whiteSpace=wrap;fontSize=12;fontStyle=0;container=1;pointerEvents=0;collapsible=0;recursiveResize=0;shape=mxgraph.aws4.group;grIcon=mxgraph.aws4.group_region;strokeColor=#00A4A6;fillColor=none;verticalAlign=top;align=left;spacingLeft=30;fontColor=#147EBA;dashed=1;" vertex="1" parent="4mNUsn576CoQ3j7A1VVO-1">
          <mxGeometry x="27" y="43" width="630" height="380" as="geometry" />
        </mxCell>
        <mxCell id="4mNUsn576CoQ3j7A1VVO-3" value="&lt;font color=&quot;#1a1a1a&quot;&gt;&lt;b&gt;VPC&lt;/b&gt;&lt;/font&gt;" style="points=[[0,0],[0.25,0],[0.5,0],[0.75,0],[1,0],[1,0.25],[1,0.5],[1,0.75],[1,1],[0.75,1],[0.5,1],[0.25,1],[0,1],[0,0.75],[0,0.5],[0,0.25]];outlineConnect=0;gradientColor=none;html=1;whiteSpace=wrap;fontSize=12;fontStyle=0;container=1;pointerEvents=0;collapsible=0;recursiveResize=0;shape=mxgraph.aws4.group;grIcon=mxgraph.aws4.group_vpc2;strokeColor=#8C4FFF;fillColor=none;verticalAlign=top;align=left;spacingLeft=30;fontColor=#AAB7B8;dashed=0;" vertex="1" parent="4mNUsn576CoQ3j7A1VVO-2">
          <mxGeometry x="27" y="27" width="576" height="342" as="geometry" />
        </mxCell>
        <mxCell id="4mNUsn576CoQ3j7A1VVO-4" value="Availability Zone" style="fillColor=none;strokeColor=#147EBA;dashed=1;verticalAlign=bottom;fontStyle=0;fontColor=#147EBA;whiteSpace=wrap;html=1;" vertex="1" parent="4mNUsn576CoQ3j7A1VVO-3">
          <mxGeometry x="27" y="18" width="225" height="306" as="geometry" />
        </mxCell>
        <mxCell id="4mNUsn576CoQ3j7A1VVO-9" value="Private subnet" style="points=[[0,0],[0.25,0],[0.5,0],[0.75,0],[1,0],[1,0.25],[1,0.5],[1,0.75],[1,1],[0.75,1],[0.5,1],[0.25,1],[0,1],[0,0.75],[0,0.5],[0,0.25]];outlineConnect=0;gradientColor=none;html=1;whiteSpace=wrap;fontSize=12;fontStyle=0;container=1;pointerEvents=0;collapsible=0;recursiveResize=0;shape=mxgraph.aws4.group;grIcon=mxgraph.aws4.group_security_group;grStroke=0;strokeColor=#00A4A6;fillColor=#E6F6F7;verticalAlign=top;align=left;spacingLeft=30;fontColor=#147EBA;dashed=0;" vertex="1" parent="4mNUsn576CoQ3j7A1VVO-3">
          <mxGeometry x="297" y="29" width="261" height="277" as="geometry" />
        </mxCell>
        <mxCell id="4mNUsn576CoQ3j7A1VVO-21" value="" style="sketch=0;points=[[0,0,0],[0.25,0,0],[0.5,0,0],[0.75,0,0],[1,0,0],[0,1,0],[0.25,1,0],[0.5,1,0],[0.75,1,0],[1,1,0],[0,0.25,0],[0,0.5,0],[0,0.75,0],[1,0.25,0],[1,0.5,0],[1,0.75,0]];outlineConnect=0;fontColor=#232F3E;fillColor=#ED7100;strokeColor=#ffffff;dashed=0;verticalLabelPosition=bottom;verticalAlign=top;align=center;html=1;fontSize=12;fontStyle=0;aspect=fixed;shape=mxgraph.aws4.resourceIcon;resIcon=mxgraph.aws4.ec2;" vertex="1" parent="4mNUsn576CoQ3j7A1VVO-9">
          <mxGeometry x="85.5" y="85.5" width="45" height="45" as="geometry" />
        </mxCell>
        <mxCell id="4mNUsn576CoQ3j7A1VVO-24" value="EC2" style="text;html=1;align=center;verticalAlign=middle;whiteSpace=wrap;rounded=0;" vertex="1" parent="4mNUsn576CoQ3j7A1VVO-9">
          <mxGeometry x="79" y="133" width="60" height="30" as="geometry" />
        </mxCell>
        <mxCell id="4mNUsn576CoQ3j7A1VVO-26" value="Security group" style="fillColor=none;strokeColor=#DD3522;verticalAlign=top;fontStyle=0;fontColor=#DD3522;whiteSpace=wrap;html=1;" vertex="1" parent="4mNUsn576CoQ3j7A1VVO-9">
          <mxGeometry x="43" y="54" width="130" height="130" as="geometry" />
        </mxCell>
        <mxCell id="4mNUsn576CoQ3j7A1VVO-42" value="Availability Zone" style="fillColor=none;strokeColor=#147EBA;dashed=1;verticalAlign=bottom;fontStyle=0;fontColor=#147EBA;whiteSpace=wrap;html=1;" vertex="1" parent="4mNUsn576CoQ3j7A1VVO-9">
          <mxGeometry x="-9" y="-18" width="279" height="315" as="geometry" />
        </mxCell>
        <mxCell id="4mNUsn576CoQ3j7A1VVO-13" value="Public subnet" style="points=[[0,0],[0.25,0],[0.5,0],[0.75,0],[1,0],[1,0.25],[1,0.5],[1,0.75],[1,1],[0.75,1],[0.5,1],[0.25,1],[0,1],[0,0.75],[0,0.5],[0,0.25]];outlineConnect=0;gradientColor=none;html=1;whiteSpace=wrap;fontSize=12;fontStyle=0;container=1;pointerEvents=0;collapsible=0;recursiveResize=0;shape=mxgraph.aws4.group;grIcon=mxgraph.aws4.group_security_group;grStroke=0;strokeColor=#7AA116;fillColor=#F2F6E8;verticalAlign=top;align=left;spacingLeft=30;fontColor=#248814;dashed=0;" vertex="1" parent="4mNUsn576CoQ3j7A1VVO-3">
          <mxGeometry x="36" y="47" width="198" height="259" as="geometry" />
        </mxCell>
        <mxCell id="4mNUsn576CoQ3j7A1VVO-14" value="" style="sketch=0;points=[[0,0,0],[0.25,0,0],[0.5,0,0],[0.75,0,0],[1,0,0],[0,1,0],[0.25,1,0],[0.5,1,0],[0.75,1,0],[1,1,0],[0,0.25,0],[0,0.5,0],[0,0.75,0],[1,0.25,0],[1,0.5,0],[1,0.75,0]];outlineConnect=0;fontColor=#232F3E;fillColor=#ED7100;strokeColor=#ffffff;dashed=0;verticalLabelPosition=bottom;verticalAlign=top;align=center;html=1;fontSize=12;fontStyle=0;aspect=fixed;shape=mxgraph.aws4.resourceIcon;resIcon=mxgraph.aws4.ec2;" vertex="1" parent="4mNUsn576CoQ3j7A1VVO-13">
          <mxGeometry x="60" y="90" width="45" height="45" as="geometry" />
        </mxCell>
        <mxCell id="4mNUsn576CoQ3j7A1VVO-22" value="EC2" style="text;html=1;align=center;verticalAlign=middle;whiteSpace=wrap;rounded=0;" vertex="1" parent="4mNUsn576CoQ3j7A1VVO-13">
          <mxGeometry x="52" y="135" width="60" height="30" as="geometry" />
        </mxCell>
        <mxCell id="4mNUsn576CoQ3j7A1VVO-25" value="Security group" style="fillColor=none;strokeColor=#DD3522;verticalAlign=top;fontStyle=0;fontColor=#DD3522;whiteSpace=wrap;html=1;" vertex="1" parent="4mNUsn576CoQ3j7A1VVO-13">
          <mxGeometry x="27" y="59" width="130" height="130" as="geometry" />
        </mxCell>
        <mxCell id="4mNUsn576CoQ3j7A1VVO-27" value="" style="sketch=0;outlineConnect=0;fontColor=#232F3E;gradientColor=none;fillColor=#8C4FFF;strokeColor=none;dashed=0;verticalLabelPosition=bottom;verticalAlign=top;align=center;html=1;fontSize=12;fontStyle=0;aspect=fixed;pointerEvents=1;shape=mxgraph.aws4.internet_gateway;" vertex="1" parent="4mNUsn576CoQ3j7A1VVO-3">
          <mxGeometry x="-22" y="119" width="45" height="45" as="geometry" />
        </mxCell>
        <mxCell id="4mNUsn576CoQ3j7A1VVO-28" value="Internet" style="text;html=1;align=center;verticalAlign=middle;whiteSpace=wrap;rounded=0;" vertex="1" parent="4mNUsn576CoQ3j7A1VVO-3">
          <mxGeometry x="-30" y="156" width="60" height="30" as="geometry" />
        </mxCell>
        <mxCell id="4mNUsn576CoQ3j7A1VVO-30" value="" style="sketch=0;outlineConnect=0;fontColor=#232F3E;gradientColor=none;fillColor=#8C4FFF;strokeColor=none;dashed=0;verticalLabelPosition=bottom;verticalAlign=top;align=center;html=1;fontSize=12;fontStyle=0;aspect=fixed;pointerEvents=1;shape=mxgraph.aws4.nat_gateway;" vertex="1" parent="4mNUsn576CoQ3j7A1VVO-3">
          <mxGeometry x="198" y="144" width="23" height="23" as="geometry" />
        </mxCell>
        <mxCell id="4mNUsn576CoQ3j7A1VVO-31" value="NAT" style="text;html=1;align=center;verticalAlign=middle;whiteSpace=wrap;rounded=0;" vertex="1" parent="4mNUsn576CoQ3j7A1VVO-3">
          <mxGeometry x="181" y="171" width="60" height="30" as="geometry" />
        </mxCell>
        <mxCell id="4mNUsn576CoQ3j7A1VVO-32" value="" style="sketch=0;outlineConnect=0;fontColor=#232F3E;gradientColor=none;fillColor=#8C4FFF;strokeColor=none;dashed=0;verticalLabelPosition=bottom;verticalAlign=top;align=center;html=1;fontSize=12;fontStyle=0;aspect=fixed;pointerEvents=1;shape=mxgraph.aws4.router;" vertex="1" parent="1">
          <mxGeometry x="-7.25" y="378" width="31" height="31" as="geometry" />
        </mxCell>
        <mxCell id="4mNUsn576CoQ3j7A1VVO-37" value="" style="outlineConnect=0;dashed=0;verticalLabelPosition=bottom;verticalAlign=top;align=center;html=1;shape=mxgraph.aws3.internet_2;fillColor=#D2D3D3;gradientColor=none;" vertex="1" parent="1">
          <mxGeometry x="-36" y="223.5" width="79.5" height="54" as="geometry" />
        </mxCell>
        <mxCell id="4mNUsn576CoQ3j7A1VVO-38" value="" style="shape=actor;whiteSpace=wrap;html=1;" vertex="1" parent="1">
          <mxGeometry x="-16.25" y="90" width="40" height="60" as="geometry" />
        </mxCell>
        <mxCell id="4mNUsn576CoQ3j7A1VVO-40" value="" style="endArrow=classic;startArrow=classic;html=1;rounded=0;" edge="1" parent="1">
          <mxGeometry width="50" height="50" relative="1" as="geometry">
            <mxPoint y="216" as="sourcePoint" />
            <mxPoint y="153" as="targetPoint" />
          </mxGeometry>
        </mxCell>
        <mxCell id="4mNUsn576CoQ3j7A1VVO-41" value="" style="endArrow=classic;startArrow=classic;html=1;rounded=0;" edge="1" parent="1">
          <mxGeometry width="50" height="50" relative="1" as="geometry">
            <mxPoint x="45" y="252" as="sourcePoint" />
            <mxPoint x="152.99999999999977" y="251.58620689655174" as="targetPoint" />
          </mxGeometry>
        </mxCell>
      </root>
    </mxGraphModel>
  </diagram>
</mxfile>
